<?xml version="1.0" encoding="UTF-8"?>
<svg id="Layer_1" xmlns="http://www.w3.org/2000/svg" version="1.1" viewBox="0 0 800 800">
  <!-- Generator: Adobe Illustrator 29.4.0, SVG Export Plug-In . SVG Version: 2.1.0 Build 152)  -->
  <defs>
    <style>
      .st0 {
        fill: #fff;
      }
    </style>
  </defs>
  <path class="st0" d="M482.66-.06c9.57,0,18.26,3.48,24.35,10.43l161.74,161.74c6.96,6.96,9.57,15.65,9.57,24.35s-4.35,18.26-10.43,24.35c-13.91,13.91-36.52,13.91-50.43,0l-104.35-101.74v340c0,19.13-15.65,34.78-34.78,34.78-19.13,0-34.78-15.65-34.78-34.78V119.07s-100,101.74-100,101.74c-13.91,13.91-33.91,13.91-46.96,0-13.91-13.91-13.91-35.65,0-49.57L458.32,9.51C464.4,3.42,473.1-.06,482.66-.06ZM356.58,680.81v-340c0-19.13-15.65-34.78-34.78-34.78s-34.78,15.65-34.78,34.78v340s-104.35-101.74-104.35-101.74c-13.91-13.91-36.52-13.91-50.43,0-13.91,13.91-13.91,35.65-.87,49.57l161.74,160.87c6.09,6.96,14.78,10.43,24.35,10.43s18.26-3.48,24.35-10.43l161.74-161.74c6.96-6.96,10.43-15.65,10.43-24.35,0-8.7-3.48-18.26-10.43-24.35-13.91-13.91-33.91-13.91-46.96,0l-100,101.74Z"/>
</svg>