<svg xmlns="http://www.w3.org/2000/svg" viewBox="0 0 32 32" fill="none">
  <circle cx="16" cy="16" r="16" fill="#2D374B"/>
  <path d="M12.6326 15.9219C12.6326 13.7023 14.1133 12.6562 15.6436 12.6562H19.1016V10.8125H15.6436C13.2842 10.8125 10.7812 12.5383 10.7812 15.9219C10.7812 19.3086 13.2842 21.0312 15.6436 21.0312H19.1016V19.1875H15.6436C14.1133 19.1875 12.6326 18.1437 12.6326 15.9219Z" fill="white"/>
  <path d="M15.9766 17.3438H18.6937L22.1952 22.5H19.0859L15.9766 17.3438Z" fill="#28A0F0"/>
  <path d="M18.4141 10.8125H21.5234L17.2266 17.3438H14.1172L18.4141 10.8125Z" fill="#28A0F0"/>
  <path d="M21.2109 14.625C21.2109 13.6582 21.9943 12.875 22.9609 12.875C23.9277 12.875 24.7109 13.6582 24.7109 14.625C24.7109 15.5918 23.9277 16.375 22.9609 16.375C21.9943 16.375 21.2109 15.5918 21.2109 14.625Z" fill="#28A0F0"/>
</svg> 