<svg xmlns="http://www.w3.org/2000/svg" viewBox="0 0 32 32" fill="none">
  <circle cx="16" cy="16" r="16" fill="#F7931A"/>
  <path d="M22.5 14.1863C22.7344 12.3176 21.3089 11.3207 19.3841 10.6792L20.0256 8.10547L18.4583 7.70703L17.8355 10.2024C17.4383 10.1063 17.031 10.0151 16.625 9.92578L17.2502 7.41797L15.6841 7.01953L15.0426 9.59437C14.7175 9.52203 14.3999 9.45062 14.0937 9.37624L14.0958 9.3667L11.9219 8.8125L11.4977 10.5011C11.4977 10.5011 12.6582 10.7627 12.6348 10.7822C13.3115 10.9551 13.4375 11.3891 13.4141 11.7314L12.6797 14.6309C12.7315 14.6441 12.7982 14.6636 12.8711 14.6948L12.6758 14.6382L11.6797 18.5781C11.5962 18.7812 11.3906 19.0822 10.9141 18.9625C10.9288 18.9886 9.78125 18.6816 9.78125 18.6816L9 20.4893L11.0469 21.0117C11.414 21.1016 11.7734 21.1963 12.125 21.2847L11.4766 23.8918L13.0415 24.2903L13.6842 21.7152C14.0996 21.8242 14.5 21.9234 14.8906 22.0165L14.25 24.5801L15.8172 24.9785L16.4656 22.3781C19.0995 22.8808 21.0495 22.6855 21.9844 20.3027C22.7422 18.3926 22.0208 17.3379 20.5781 16.6602C21.6406 16.4238 22.3333 15.6309 22.5 14.1863ZM19.1992 19.0723C18.6836 20.9824 15.3398 20.0254 14.1953 19.7403L15.0703 16.3399C16.2148 16.6262 19.7344 17.0527 19.1992 19.0723ZM19.7148 14.1563C19.2451 15.9062 16.4688 15.0996 15.5195 14.8613L16.3164 11.7824C17.2656 12.0207 20.1992 12.3261 19.7148 14.1563Z" fill="white"/>
</svg> 