<svg xmlns="http://www.w3.org/2000/svg" viewBox="0 0 32 32" fill="none">
  <circle cx="16" cy="16" r="16" fill="#2775CA"/>
  <path d="M16 25C21.0751 25 25.1849 20.8903 25.1849 15.8151C25.1849 10.7399 21.0751 6.6301 16 6.6301C10.9248 6.6301 6.81512 10.7399 6.81512 15.8151C6.81512 20.8903 10.9248 25 16 25Z" fill="#2775CA"/>
  <path d="M21.0603 13.6445C21.0603 13.3341 20.8131 13.1817 20.5026 13.1034V13.0869C21.0473 12.9346 21.4663 12.5938 21.4663 11.8465C21.4663 10.8691 20.6537 10.3907 19.3422 10.3907H16.6347V17.263H19.4812C20.9124 17.263 21.7771 16.7324 21.7771 15.7157C21.7771 14.7621 21.2465 13.9624 20.028 13.8229V13.8072C20.6667 13.6548 21.0603 13.3053 21.0603 12.6367V13.6445ZM18.0296 11.6826H19.1566C19.7693 11.6826 20.0928 11.9666 20.0928 12.4579C20.0928 12.9492 19.7693 13.2332 19.1566 13.2332H18.0296V11.6826ZM18.0296 15.9711V14.1746H19.2696C19.9772 14.1746 20.3006 14.4582 20.3006 15.0839C20.3006 15.7096 19.9928 15.9711 19.2696 15.9711H18.0296Z" fill="white"/>
  <path d="M15.9999 26C21.5228 26 26 21.5228 26 16C26 10.4771 21.5228 6 15.9999 6C10.8189 6 6.55993 9.91239 6.04498 15H10.2453C10.7246 12.1865 13.1336 10 15.9999 10C19.3137 10 22 12.6863 22 16C22 19.3137 19.3137 22 15.9999 22C13.1336 22 10.7246 19.8135 10.2453 17H6.04498C6.55993 22.0876 10.8189 26 15.9999 26Z" fill="white"/>
</svg> 